<?xml version="1.0" encoding="utf-8"?>
<!-- Generator: Adobe Illustrator 24.3.0, SVG Export Plug-In . SVG Version: 6.00 Build 0)  -->
<svg version="1.1" id="Layer_1" xmlns="http://www.w3.org/2000/svg" xmlns:xlink="http://www.w3.org/1999/xlink" x="0px" y="0px"
	 viewBox="0 0 80 80" style="enable-background:new 0 0 80 80;" xml:space="preserve">
<style type="text/css">
	.st0{fill:#4AC1E0;}
</style>
<g>
	<path class="st0" d="M61.1,58.2h-4.4c-1.7,0-3-1-3-2.3v-41c0-1.3,1.3-2.3,3-2.3h4.4c1.7,0,3,1,3,2.3v41
		C64.1,57.2,62.8,58.2,61.1,58.2z M56.5,55.4c0.1,0,0.1,0,0.2,0h4.4c0.1,0,0.1,0,0.2,0V15.3c-0.1,0-0.1,0-0.2,0h-4.4
		c-0.1,0-0.1,0-0.2,0V55.4z"/>
	<path class="st0" d="M55.1,55.3c-0.2,0-0.3,0-0.5-0.1l-24.8-8.5c-0.6-0.2-0.9-0.7-0.9-1.3V25.2c0-0.6,0.4-1.1,0.9-1.3l24.8-8.5
		c0.4-0.1,0.9-0.1,1.3,0.2c0.4,0.3,0.6,0.7,0.6,1.1v37.2c0,0.5-0.2,0.9-0.6,1.1C55.7,55.2,55.4,55.3,55.1,55.3z M31.7,44.5l22,7.5
		V18.7l-22,7.5V44.5z"/>
	<path class="st0" d="M30.3,47h-9.9c-1.6,0-2.9-1.3-2.9-2.9V26.7c0-1.6,1.3-2.9,2.9-2.9h9.9c0.8,0,1.4,0.6,1.4,1.4v20.4
		C31.7,46.4,31.1,47,30.3,47z M20.4,26.6c-0.1,0-0.1,0.1-0.1,0.1v17.4c0,0.1,0.1,0.1,0.1,0.1h8.5V26.6H20.4z"/>
	<path class="st0" d="M18.9,43.9h-5.5c-1.6,0-2.9-1.3-2.9-2.9V29.8c0-1.6,1.3-2.9,2.9-2.9h5.5c0.8,0,1.4,0.6,1.4,1.4v14.2
		C20.3,43.3,19.6,43.9,18.9,43.9z M13.3,29.7c-0.1,0-0.1,0.1-0.1,0.1V41c0,0.1,0.1,0.1,0.1,0.1h4.1V29.7H13.3z"/>
	<path class="st0" d="M63.3,45.5c-0.8,0-1.4-0.6-1.4-1.4c0-0.8,0.6-1.4,1.4-1.4c1.6,0,3.5-3.2,3.5-7.4s-1.8-7.4-3.5-7.4
		c-0.8,0-1.4-0.6-1.4-1.4c0-0.8,0.6-1.4,1.4-1.4c3.5,0,6.3,4.5,6.3,10.2C69.6,41.1,66.8,45.5,63.3,45.5z"/>
	<path class="st0" d="M24.9,67.5h-0.7c-2.9,0-5.3-2.4-5.3-5.3V45.6c0-0.8,0.6-1.4,1.4-1.4h8.6c0.8,0,1.4,0.6,1.4,1.4v16.6
		C30.2,65.1,27.8,67.5,24.9,67.5z M21.6,47v15.2c0,1.4,1.1,2.5,2.5,2.5h0.7c1.4,0,2.5-1.1,2.5-2.5V47H21.6z"/>
</g>
</svg>
