<?xml version="1.0" encoding="utf-8"?>
<!-- Generator: Adobe Illustrator 24.3.0, SVG Export Plug-In . SVG Version: 6.00 Build 0)  -->
<svg version="1.1" id="Layer_1" xmlns="http://www.w3.org/2000/svg" xmlns:xlink="http://www.w3.org/1999/xlink" x="0px" y="0px"
	 viewBox="0 0 80 80" style="enable-background:new 0 0 80 80;" xml:space="preserve">
<style type="text/css">
	.st0{fill:#4AC1E0;}
</style>
<g>
	<path class="st0" d="M76,38.7h-7.8v2.8H76c0.8,0,1.4-0.6,1.4-1.4C77.3,39.4,76.7,38.7,76,38.7z"/>
	<path class="st0" d="M49.6,69.5c0-0.8-0.7-1.5-1.5-1.5H31.8c-0.8,0-1.5,0.7-1.5,1.5c0,0.8,0.7,1.5,1.5,1.5h16.4
		C49,71,49.6,70.3,49.6,69.5z"/>
	<path class="st0" d="M34.3,73.8c-0.6,0-0.7,0.4-0.4,0.8l2.1,2.4c0.1,0.1,0.2,0.2,0.3,0.2h7.1c0.1,0,0.3-0.1,0.3-0.2l2.1-2.4
		c0.4-0.4,0.2-0.8-0.4-0.8H34.3z"/>
	<path class="st0" d="M27.6,22.8c-4.2,0.1-7.5,3.6-7.5,7.7c0,1.1,0.2,2.2,0.7,3.2c0,0-0.1,0.1-0.1,0.1c-0.1,0-0.1,0.1-0.2,0.1
		c-0.1,0-0.1,0.1-0.2,0.1c0,0-0.1,0.1-0.1,0.1c-0.1,0.1-0.3,0.2-0.4,0.3c0,0-0.1,0.1-0.1,0.1c-0.1,0.1-0.1,0.1-0.2,0.2
		c0,0-0.1,0.1-0.1,0.1c-0.1,0.1-0.2,0.2-0.3,0.3c-0.1,0.1-0.1,0.1-0.2,0.2c-0.1,0.1-0.1,0.1-0.2,0.2c-0.1,0.1-0.1,0.1-0.2,0.2
		c0,0.1-0.1,0.1-0.1,0.2c-0.1,0.1-0.1,0.2-0.2,0.3c0,0,0,0.1-0.1,0.1c-0.1,0.1-0.2,0.3-0.3,0.4c0,0,0,0.1,0,0.1
		c-0.1,0.1-0.1,0.3-0.2,0.4c0,0,0,0,0,0.1c-0.2,0.3-0.3,0.6-0.4,1c0,0,0,0,0,0c-0.1,0.2-0.1,0.3-0.1,0.5c0,0,0,0,0,0
		c-0.1,0.3-0.2,0.7-0.2,1c0,0,0,0.1,0,0.1c0,0.1,0,0.3,0,0.4c0,0,0,0.1,0,0.1c0,0.2,0,0.3,0,0.5c0,2.8,1.4,5.4,3.8,6.9
		c-0.5,1-0.8,2.2-0.8,3.3c0,4.1,3.2,7.5,7.2,7.7c0.6,3.6,3.8,6.4,7.6,6.4c2.2,0,4.1-0.6,5.6-1.8c1.5,1.2,3.4,1.8,5.6,1.8
		c3.8,0,7-2.8,7.6-6.4c4-0.3,7.2-3.6,7.2-7.7c0-1.2-0.3-2.3-0.8-3.3c2.3-1.5,3.8-4.1,3.8-6.9c0-0.2,0-0.3,0-0.5c0,0,0-0.1,0-0.1
		c0-0.1,0-0.3,0-0.4c0,0,0-0.1,0-0.1c0-0.3-0.1-0.7-0.2-1c0,0,0,0,0,0c0-0.2-0.1-0.3-0.1-0.5c0,0,0,0,0,0c-0.1-0.3-0.3-0.7-0.4-1
		c0,0,0,0,0-0.1c-0.1-0.1-0.1-0.3-0.2-0.4c0,0,0-0.1,0-0.1c-0.1-0.1-0.2-0.3-0.3-0.4c0,0,0,0-0.1-0.1c-0.1-0.1-0.1-0.2-0.2-0.3
		c0-0.1-0.1-0.1-0.1-0.2c-0.1-0.1-0.1-0.1-0.2-0.2c-0.1-0.1-0.1-0.1-0.2-0.2c-0.1-0.1-0.1-0.1-0.2-0.2c-0.1-0.1-0.2-0.2-0.3-0.3
		c0,0-0.1-0.1-0.1-0.1c-0.1-0.1-0.1-0.1-0.2-0.2c0,0-0.1-0.1-0.1-0.1c-0.1-0.1-0.3-0.2-0.4-0.3c0,0-0.1-0.1-0.1-0.1
		c-0.1,0-0.1-0.1-0.2-0.1c-0.1,0-0.1-0.1-0.2-0.1c0,0-0.1-0.1-0.1-0.1c0.5-1,0.7-2.1,0.7-3.2c0-4.2-3.3-7.6-7.5-7.7
		c-0.8-3.5-3.9-6.1-7.6-6.1c-1.8,0-3.5,0.6-4.8,1.7c-1.4-1.1-3.1-1.7-4.8-1.7C31.5,16.7,28.4,19.3,27.6,22.8z M41.2,44.1
		c0.4,0,0.8,0,1.2,0c0.6,0,1.3,0,1.9-0.1c0.2,0.8,0.5,1.5,0.9,2c0.2,0.3,0.6,0.5,1,0.5c0.2,0,0.5-0.1,0.7-0.2
		c0.5-0.4,0.7-1.2,0.3-1.7c-0.7-1-0.9-3.6-0.6-4.4c0.3-0.6-0.1-1.3-0.7-1.6c-0.6-0.3-1.3,0.1-1.6,0.7c-0.2,0.6-0.3,1.4-0.3,2.3
		c-0.8,0.1-1.8,0.1-2.8,0v-21c1-0.9,2.3-1.4,3.6-1.4c2.5,0,4.5,1.7,5.1,4c-1.4,0.4-2.7,1.3-3.7,2.4c-0.4,0.5-0.4,1.3,0.1,1.7
		c0.2,0.2,0.5,0.3,0.8,0.3c0.3,0,0.7-0.1,0.9-0.4c0.9-1,2.1-1.7,3.4-1.8l0,0c0.2,0,0.4,0,0.7,0c2.9,0,5.3,2.4,5.3,5.3
		c0,0.8-0.2,1.6-0.6,2.4c-0.6-0.1-1.2-0.2-1.8-0.2c-1.3,0-2.5,0.3-3.6,0.9c-0.8-0.7-1.6-1.2-2.6-1.6c-0.6-0.2-1.3,0.1-1.6,0.7
		c-0.2,0.6,0.1,1.3,0.7,1.6c2,0.8,3.5,2.6,3.7,4.8c0.1,0.6,0.6,1.1,1.2,1.1c0,0,0.1,0,0.1,0c0.7-0.1,1.1-0.7,1.1-1.4
		c-0.1-1.1-0.5-2.2-1.1-3.2c0.6-0.2,1.3-0.4,2-0.4c0.7,0,1.3,0.1,2,0.3c0.1,0,0.3,0.1,0.4,0.1c0,0,0.1,0,0.1,0
		c0.1,0,0.2,0.1,0.3,0.1c0,0,0.1,0,0.1,0.1c0.1,0.1,0.2,0.1,0.3,0.2c0,0,0.1,0.1,0.1,0.1c0.1,0.1,0.2,0.1,0.3,0.2
		c0,0,0.1,0.1,0.1,0.1c0.1,0,0.1,0.1,0.2,0.1c0,0,0.1,0.1,0.1,0.1c0.1,0.1,0.2,0.1,0.2,0.2c0,0,0.1,0.1,0.1,0.1
		c0.1,0.1,0.1,0.1,0.2,0.2c0,0,0,0.1,0.1,0.1c0.1,0.1,0.1,0.2,0.2,0.3c0,0,0,0.1,0.1,0.1c0.1,0.1,0.1,0.2,0.2,0.3c0,0,0,0,0,0
		c0.1,0.1,0.1,0.2,0.2,0.4c0,0,0,0,0,0c0.1,0.1,0.1,0.3,0.2,0.4c0,0,0,0,0,0c0.1,0.3,0.2,0.5,0.3,0.8c0,0,0,0,0,0
		c0.1,0.3,0.1,0.6,0.1,0.8c0,0,0,0.1,0,0.1c0,0.1,0,0.3,0,0.4c0,2.3-1.4,4.4-3.5,5.4L56,47l0.9,1.2c0.7,0.9,1,2,1,3.1
		c0,2.8-2.1,5-4.8,5.3c-0.3-1.8-1.2-3.5-2.6-4.7c0.6-0.9,1-1.8,1.2-2.9c0.1-0.7-0.3-1.3-1-1.4c-0.7-0.1-1.3,0.3-1.4,1
		c-0.4,2.1-2,3.8-4.1,4.2c-0.7,0.1-1.1,0.8-0.9,1.4c0.1,0.6,0.6,1,1.2,1c0.1,0,0.2,0,0.3,0c1.2-0.2,2.2-0.8,3.1-1.5
		c1.2,1,2,2.5,2,4.1v0c0,2.9-2.3,5.2-5.2,5.2c-1.8,0-3.3-0.5-4.4-1.5L41.2,44.1L41.2,44.1z M38.8,28.8c-0.6,0.4-1.6,0.5-2.6,0.3
		c-1.4-0.3-2.5-1-3-2.1c-0.3-0.6-1-0.9-1.6-0.6c-0.6,0.3-0.9,1-0.6,1.6c0.8,1.8,2.6,3.1,4.8,3.5c0.5,0.1,0.9,0.1,1.3,0.1
		c0.6,0,1.1-0.1,1.7-0.2v30.1c-1.1,1-2.6,1.5-4.4,1.5c-2.9,0-5.2-2.3-5.2-5.2c0,0,0,0,0,0c0-1.4,0.5-2.5,1.5-3.4
		c1-0.9,2.3-1.3,3.7-1.3c0.7,0,1.2-0.5,1.2-1.2c0-0.7-0.5-1.2-1.2-1.2c-0.7,0-1.4,0.1-2.1,0.3c0.1-1.4-0.1-2.8-0.7-4.1
		c-0.3-0.6-1-0.9-1.6-0.6s-0.9,1-0.6,1.6c0.7,1.4,0.7,3,0.1,4.4c-0.1,0.1-0.3,0.2-0.4,0.4c-1.2,1.1-1.9,2.4-2.2,4
		c-2.7-0.3-4.8-2.5-4.8-5.3c0-1.1,0.3-2.2,1-3.1L24,47l-1.4-0.6c-2.1-0.9-3.5-3-3.5-5.4c0-0.1,0-0.3,0-0.4c0,0,0-0.1,0-0.1
		c0-0.3,0.1-0.6,0.1-0.8c0,0,0,0,0,0c0.1-0.3,0.2-0.6,0.3-0.8c0,0,0,0,0,0c0.1-0.1,0.1-0.3,0.2-0.4c0,0,0,0,0,0
		c0.1-0.1,0.1-0.2,0.2-0.4c0,0,0,0,0,0c0.1-0.1,0.1-0.2,0.2-0.3c0,0,0-0.1,0.1-0.1c0.1-0.1,0.1-0.2,0.2-0.3c0,0,0-0.1,0.1-0.1
		c0.1-0.1,0.1-0.1,0.2-0.2c0,0,0.1-0.1,0.1-0.1c0.1-0.1,0.2-0.2,0.2-0.2c0,0,0.1-0.1,0.1-0.1c0.1,0,0.1-0.1,0.2-0.1
		c0,0,0.1-0.1,0.1-0.1c0.1-0.1,0.2-0.1,0.3-0.2c0,0,0.1-0.1,0.1-0.1c0.1-0.1,0.2-0.1,0.3-0.2c0,0,0.1,0,0.1-0.1
		c0.1-0.1,0.2-0.1,0.3-0.1c0,0,0.1,0,0.1,0c0.1-0.1,0.2-0.1,0.4-0.1c0.6-0.2,1.3-0.3,2-0.3c1.9,0,3.4,0.9,4.5,2.4
		c-1.1,0.6-2,1.4-2.7,2.5c-0.4,0.6-0.2,1.3,0.3,1.7c0.2,0.1,0.5,0.2,0.7,0.2c0.4,0,0.8-0.2,1-0.5c1.2-1.8,3.4-2.7,5.5-2.4
		c0.7,0.1,1.3-0.4,1.4-1.1c0.1-0.7-0.4-1.3-1.1-1.4c-1-0.1-1.9-0.1-2.8,0.1c-1.5-2.5-4-4-6.8-4c-0.6,0-1.2,0.1-1.8,0.2
		c-0.4-0.7-0.6-1.5-0.6-2.4c0-2.9,2.4-5.3,5.3-5.3c0.2,0,0.4,0,0.7,0l1.3,0.2l0.1-1.3c0.2-2.8,2.5-5,5.3-5c1.3,0,2.6,0.5,3.6,1.4
		L38.8,28.8L38.8,28.8z"/>
	<path class="st0" d="M4,41.5h7.8v-2.8H4c-0.8,0-1.4,0.6-1.4,1.4C2.7,40.9,3.3,41.5,4,41.5z"/>
	<path class="st0" d="M64.4,13.7L59,19.2l1.9,1.9l5.5-5.5c0.5-0.5,0.5-1.4,0-1.9C65.9,13.2,65,13.2,64.4,13.7z"/>
	<path class="st0" d="M13.6,64.6c-0.5,0.5-0.5,1.4,0,1.9c0.5,0.5,1.4,0.5,1.9,0L21,61l-1.9-1.9L13.6,64.6z"/>
	<path class="st0" d="M41.4,4.2c0-0.8-0.6-1.4-1.4-1.4c-0.8,0-1.4,0.6-1.4,1.4v7.8h2.8V4.2z"/>
	<path class="st0" d="M13.6,13.7c-0.5,0.5-0.5,1.4,0,1.9l5.5,5.5l1.9-1.9l-5.5-5.5C15,13.2,14.1,13.2,13.6,13.7z"/>
	<path class="st0" d="M59,61l5.5,5.5c0.5,0.5,1.4,0.5,1.9,0c0.5-0.5,0.5-1.4,0-1.9l-5.5-5.5L59,61z"/>
</g>
</svg>
