<?xml version="1.0" encoding="utf-8"?>
<!-- Generator: Adobe Illustrator 24.3.0, SVG Export Plug-In . SVG Version: 6.00 Build 0)  -->
<svg version="1.1" id="Layer_1" xmlns="http://www.w3.org/2000/svg" xmlns:xlink="http://www.w3.org/1999/xlink" x="0px" y="0px"
	 viewBox="0 0 80 80" style="enable-background:new 0 0 80 80;" xml:space="preserve">
<style type="text/css">
	.st0{fill:#4AC1E0;}
</style>
<g>
	<path class="st0" d="M30.8,18.5c-0.9,0-1.9-0.2-2.7-0.6c-1.5-0.7-2.7-2-3.3-3.6c-0.6-1.6-0.5-3.3,0.2-4.9c0.7-1.5,2-2.7,3.6-3.3
		c1.6-0.6,3.3-0.5,4.9,0.2c1.5,0.7,2.7,2,3.3,3.6c1.2,3.3-0.6,7-3.9,8.1C32.3,18.4,31.6,18.5,30.8,18.5z M30.8,8.6
		c-0.4,0-0.8,0.1-1.2,0.2c-0.9,0.3-1.6,1-2,1.8c-0.4,0.9-0.5,1.8-0.1,2.7c0.3,0.9,1,1.6,1.8,2c0.9,0.4,1.8,0.5,2.7,0.1
		c1.9-0.7,2.8-2.7,2.2-4.6c-0.3-0.9-1-1.6-1.8-2C31.9,8.7,31.4,8.6,30.8,8.6z"/>
	<path class="st0" d="M12.6,54c-1.2,0-2.3-0.6-3.1-1.6c-1.2-1.7-0.9-4.1,0.8-5.3c8-5.9,8.5-11.8,8.5-12c0,0,0-0.1,0-0.2
		c0-0.1,0-0.3,0.1-0.4c0,0,0-0.2,0.1-0.2l3.3-10.2l-0.4,0.1c-0.1,0-0.2,0.1-0.3,0.2l-2.5,6.3c-0.4,0.9-1.1,1.7-2,2.1
		c-0.9,0.4-2,0.4-2.9,0c-1.9-0.8-2.9-3-2.1-5l2.5-6.3c0.9-2.1,2.6-3.8,4.8-4.6l7.3-2.6c0.7-0.3,1.5,0.1,1.8,0.9
		c0.3,0.7-0.1,1.5-0.9,1.8l-7.3,2.6c-1.4,0.5-2.6,1.6-3.1,3l-2.5,6.3c-0.2,0.5,0,1.1,0.6,1.3c0.2,0.1,0.5,0.1,0.8,0
		c0.2-0.1,0.4-0.3,0.5-0.6l2.5-6.3c0.3-0.9,1-1.5,1.9-1.8l3-1.1c0.5-0.2,1.1-0.1,1.4,0.3c0.4,0.4,0.5,0.9,0.4,1.4l-4.1,12.6
		c0,0,0,0.1,0,0.1c0,0,0,0.2,0,0.2c0,0,0,0.1,0,0.1c-0.1,1.1-1,7.7-9.7,14c-0.4,0.3-0.5,1-0.2,1.4c0.2,0.3,0.6,0.5,1,0.4
		c0.2,0,0.3-0.1,0.4-0.2c6.3-4.6,8.9-9.5,9.9-12.9c0.1-0.4,0.4-0.7,0.7-0.8c0.3-0.2,0.7-0.2,1.1,0l3,1.1c1.1,0.4,1.7,1.6,1.3,2.8
		l-2.4,7.6c-0.1,0.3-0.1,0.5,0.1,0.8c0.1,0.2,0.3,0.4,0.6,0.5c0.2,0,0.3,0.1,0.5,0c0.4-0.1,0.7-0.3,0.8-0.7l2.4-7.6
		c0.7-2.2-0.4-4.5-2.5-5.3l-3.5-1.3c-0.7-0.3-1.1-1-0.8-1.7l3.2-10c0.2-0.5,0.6-0.9,1.2-1c0.5-0.1,1.1,0.2,1.4,0.7l1.7,3
		c0.8,1.4,2.4,2.2,4,1.9c0.3,0,0.6-0.1,0.9-0.3l5.2-2.2c0.5-0.2,0.8-0.8,0.5-1.3c-0.1-0.3-0.3-0.4-0.6-0.6c-0.2-0.1-0.5-0.1-0.8,0
		L36,25.9c-0.9,0.4-2,0-2.4-0.8l-4-6.9c-0.4-0.7-0.2-1.5,0.5-1.9c0.7-0.4,1.5-0.2,1.9,0.5l3.6,6.2l4.5-1.9c0.9-0.4,2-0.4,2.9,0
		c0.9,0.4,1.7,1.1,2.1,2.1c0.8,1.9-0.1,4.2-2,5l-5.2,2.2c-0.5,0.2-1,0.4-1.6,0.4c-2.7,0.4-5.5-0.9-6.9-3.3l-0.1-0.2L27.5,33l2.2,0.8
		c3.5,1.3,5.3,5.2,4.2,8.7l-2.4,7.6c-0.4,1.4-1.6,2.4-3.1,2.6c-0.6,0.1-1.2,0-1.7-0.1c-2-0.6-3.1-2.8-2.5-4.8l2.3-7.1l-1.1-0.4
		C23.9,44,21,48.7,14.9,53.2c-0.5,0.4-1.1,0.6-1.7,0.7C13,53.9,12.8,54,12.6,54z"/>
	<g>
		<path class="st0" d="M57.2,66.8c-0.5,0-1-0.3-1.3-0.8l-1.3-2.7c-1.3,0.2-2.6,0.2-4,0L49.3,66c-0.2,0.3-0.5,0.6-0.8,0.7
			c-0.4,0.1-0.7,0.1-1.1-0.1l-6.7-3.3c-0.7-0.3-1-1.2-0.6-1.9l1.4-2.8c-1.7-1.7-2.9-3.7-3.7-6h-1.6c-0.8,0-1.4-0.6-1.4-1.4V43
			c0-0.8,0.6-1.4,1.4-1.4H38c0.8-1.5,1.9-3.7,3.5-5.4L40.2,34c-0.2-0.3-0.2-0.7-0.1-1.1c0.1-0.4,0.4-0.7,0.7-0.8l6.7-3.3
			c0.7-0.3,1.5-0.1,1.9,0.6l1.3,2.7c1.3-0.2,2.5-0.2,4,0l1.4-2.8c0.3-0.7,1.2-1,1.9-0.7l6.7,3.2c0.3,0.2,0.6,0.5,0.7,0.8
			c0.1,0.4,0.1,0.8-0.1,1.1l-1.3,2.5c1.6,1.7,2.7,3.9,3.5,5.4h2.4c0.8,0,1.4,0.6,1.4,1.4v8.4c0,0.8-0.6,1.4-1.4,1.4h-2.2
			c-0.8,2.2-2,4.3-3.7,6l1.4,2.8c0.3,0.7,0.1,1.5-0.6,1.9l-6.7,3.3C57.7,66.8,57.4,66.8,57.2,66.8z M55.4,60.4c0.5,0,1,0.3,1.3,0.8
			l1.2,2.4l4.2-2.1L60.9,59c-0.3-0.6-0.1-1.2,0.3-1.7c1.9-1.7,3.3-3.9,3.9-6.4c0.2-0.6,0.7-1,1.4-1h1.9v-5.6h-1.9
			c-0.5,0-1-0.3-1.2-0.7l-0.3-0.6c-0.8-1.5-2.1-4.1-3.7-5.5c-0.5-0.4-0.6-1.1-0.3-1.7l1.1-2.1l-4.1-1.9l-1.2,2.5
			c-0.3,0.6-0.9,0.9-1.5,0.8c-0.8-0.2-1.7-0.2-2.5-0.2c-0.8,0-1.7,0.1-2.5,0.2c-0.6,0.1-1.2-0.2-1.5-0.8l-1.2-2.4l-4.1,2l1.1,1.9
			c0.3,0.6,0.2,1.3-0.3,1.7c-1.6,1.4-3,4-3.7,5.5l-0.3,0.6c-0.2,0.5-0.7,0.7-1.2,0.7h-1.2V50h1.2c0.6,0,1.2,0.4,1.4,1
			c0.7,2.5,2,4.7,3.9,6.4c0.5,0.4,0.6,1.1,0.3,1.7l-1.2,2.4l4.2,2.1l1.2-2.4c0.3-0.6,0.9-0.9,1.5-0.8c1.7,0.3,3.4,0.3,5,0
			C55.3,60.4,55.3,60.4,55.4,60.4z"/>
		<path class="st0" d="M52.6,56.3c-4.7,0-8.5-3.8-8.5-8.5s3.8-8.5,8.5-8.5s8.5,3.8,8.5,8.5S57.3,56.3,52.6,56.3z M52.6,42.1
			c-3.1,0-5.7,2.6-5.7,5.7c0,3.1,2.6,5.7,5.7,5.7c3.1,0,5.7-2.6,5.7-5.7C58.3,44.7,55.7,42.1,52.6,42.1z"/>
		<path class="st0" d="M29.1,74.2c-0.5,0-1-0.3-1.3-0.8l-0.5-1c-0.4,0-0.8,0-1.3,0l-0.5,1c-0.2,0.3-0.5,0.6-0.8,0.7
			c-0.4,0.1-0.7,0.1-1.1-0.1l-3.5-1.7c-0.7-0.3-1-1.2-0.6-1.9l0.5-1.1c-0.6-0.8-1.2-1.7-1.6-2.6H18c-0.8,0-1.4-0.6-1.4-1.4v-4.2
			c0-0.8,0.6-1.4,1.4-1.4h0.5c0.3-0.8,0.8-1.5,1.5-2.2l-0.4-0.7c-0.2-0.3-0.2-0.7-0.1-1.1c0.1-0.4,0.4-0.7,0.7-0.8l3.5-1.7
			c0.7-0.3,1.5-0.1,1.9,0.6l0.5,1c0.4,0,0.8,0,1.2,0l0.5-1c0.3-0.7,1.2-1,1.9-0.7l3.5,1.6c0.3,0.2,0.6,0.5,0.7,0.8
			c0.1,0.4,0.1,0.8-0.1,1.1l-0.4,0.8c0.7,0.7,1.2,1.5,1.5,2.2h1.4c0.8,0,1.4,0.6,1.4,1.4v4.2c0,0.8-0.6,1.4-1.4,1.4h-1.4
			c-0.4,1-0.9,1.9-1.6,2.6l0.5,1.1c0.3,0.7,0,1.5-0.6,1.8L29.7,74C29.5,74.1,29.3,74.2,29.1,74.2z M28.1,69.5c0.5,0,1,0.3,1.3,0.8
			l0.3,0.6l1-0.5l-0.4-0.8c-0.3-0.6-0.1-1.2,0.3-1.6c0.8-0.7,1.5-1.8,1.8-3.1c0.2-0.6,0.7-1,1.3-1h1v-1.4h-1c-0.6,0-1.2-0.4-1.3-1
			c-0.3-1-0.8-1.8-1.8-2.7c-0.5-0.4-0.6-1.1-0.3-1.7l0.3-0.5l-0.9-0.4l-0.3,0.7c-0.3,0.6-0.9,0.9-1.5,0.8c-0.8-0.2-1.6-0.1-2.3,0
			c-0.6,0.1-1.2-0.2-1.5-0.8l-0.3-0.6l-0.9,0.4l0.2,0.3c0.3,0.6,0.2,1.3-0.3,1.7c-1,0.9-1.6,1.7-1.8,2.7c-0.2,0.6-0.7,1-1.3,1h-0.1
			V64h0.1c0.6,0,1.2,0.4,1.3,1c0.3,1.2,1,2.3,1.8,3.1c0.5,0.4,0.6,1.1,0.3,1.7l-0.3,0.7l1,0.5l0.3-0.6c0.3-0.6,0.9-0.9,1.5-0.7
			c0.9,0.2,1.6,0.2,2.3,0C28,69.5,28,69.5,28.1,69.5z"/>
		<path class="st0" d="M26.6,68.7c-2.8,0-5.1-2.3-5.1-5.1c0-2.8,2.3-5.1,5.1-5.1s5.1,2.3,5.1,5.1C31.7,66.5,29.4,68.7,26.6,68.7z
			 M26.6,61.4c-1.3,0-2.3,1-2.3,2.3s1,2.3,2.3,2.3c1.3,0,2.3-1,2.3-2.3S27.9,61.4,26.6,61.4z"/>
	</g>
</g>
</svg>
