<?xml version="1.0" encoding="utf-8"?>
<!-- Generator: Adobe Illustrator 24.3.0, SVG Export Plug-In . SVG Version: 6.00 Build 0)  -->
<svg version="1.1" id="Layer_1" xmlns="http://www.w3.org/2000/svg" xmlns:xlink="http://www.w3.org/1999/xlink" x="0px" y="0px"
	 viewBox="0 0 80 80" style="enable-background:new 0 0 80 80;" xml:space="preserve">
<style type="text/css">
	.st0{fill:#4AC1E0;}
</style>
<g>
	<g>
		<path class="st0" d="M40.5,60.8c-4.2,0-7.6-3.4-7.6-7.6s3.4-7.6,7.6-7.6c4.2,0,7.6,3.4,7.6,7.6S44.8,60.8,40.5,60.8z M40.5,48.3
			c-2.7,0-4.8,2.2-4.8,4.8s2.2,4.8,4.8,4.8s4.8-2.2,4.8-4.8S43.2,48.3,40.5,48.3z"/>
		<path class="st0" d="M49.6,73.7H31.5c-0.8,0-1.4-0.6-1.4-1.4v-6c0-4.4,3.6-7.9,7.9-7.9h4.5c4.7,0,8.5,3.8,8.5,8.5v5.4
			C51,73.1,50.4,73.7,49.6,73.7z M32.9,70.9h15.4v-4c0-3.2-2.6-5.7-5.7-5.7H38c-2.8,0-5.1,2.3-5.1,5.1V70.9z"/>
	</g>
	<g>
		<path class="st0" d="M40.5,21.6c-4.2,0-7.6-3.4-7.6-7.6s3.4-7.6,7.6-7.6c4.2,0,7.6,3.4,7.6,7.6S44.8,21.6,40.5,21.6z M40.5,9.1
			c-2.7,0-4.8,2.2-4.8,4.8s2.2,4.8,4.8,4.8s4.8-2.2,4.8-4.8S43.2,9.1,40.5,9.1z"/>
		<path class="st0" d="M49.6,34.4H31.5c-0.8,0-1.4-0.6-1.4-1.4v-6c0-4.4,3.6-7.9,7.9-7.9h4.5c4.7,0,8.5,3.8,8.5,8.5v5.4
			C51,33.8,50.4,34.4,49.6,34.4z M32.9,31.7h15.4v-4c0-3.2-2.6-5.7-5.7-5.7H38c-2.8,0-5.1,2.3-5.1,5.1V31.7z"/>
	</g>
	<g>
		<path class="st0" d="M15.6,42.2c-4.2,0-7.6-3.4-7.6-7.6s3.4-7.6,7.6-7.6c4.2,0,7.6,3.4,7.6,7.6S19.8,42.2,15.6,42.2z M15.6,29.7
			c-2.7,0-4.8,2.2-4.8,4.8c0,2.7,2.2,4.8,4.8,4.8s4.8-2.2,4.8-4.8C20.4,31.9,18.2,29.7,15.6,29.7z"/>
		<path class="st0" d="M24.7,55H6.5c-0.8,0-1.4-0.6-1.4-1.4v-6c0-4.4,3.6-7.9,7.9-7.9h4.5c4.7,0,8.5,3.8,8.5,8.5v5.4
			C26.1,54.4,25.4,55,24.7,55z M7.9,52.2h15.4v-4c0-3.2-2.6-5.7-5.7-5.7H13c-2.8,0-5.1,2.3-5.1,5.2V52.2z"/>
	</g>
	<g>
		<path class="st0" d="M64.4,42.2c-4.2,0-7.6-3.4-7.6-7.6s3.4-7.6,7.6-7.6c4.2,0,7.6,3.4,7.6,7.6S68.6,42.2,64.4,42.2z M64.4,29.7
			c-2.7,0-4.8,2.2-4.8,4.8c0,2.7,2.2,4.8,4.8,4.8c2.7,0,4.8-2.2,4.8-4.8C69.3,31.9,67.1,29.7,64.4,29.7z"/>
		<path class="st0" d="M73.5,55H55.3c-0.8,0-1.4-0.6-1.4-1.4v-6c0-4.4,3.6-7.9,7.9-7.9h4.5c4.7,0,8.5,3.8,8.5,8.5v5.4
			C74.9,54.4,74.3,55,73.5,55z M56.7,52.2h15.4v-4c0-3.2-2.6-5.7-5.7-5.7h-4.5c-2.8,0-5.1,2.3-5.1,5.2V52.2z"/>
	</g>
	<path class="st0" d="M26.1,68.3c0,0-0.1,0-0.1,0c-7.8-0.8-10.8-7.2-11.3-10.5c-0.1-0.8,0.4-1.5,1.2-1.6c0.8-0.1,1.5,0.4,1.6,1.2
		c0,0.3,1.2,7.3,8.8,8.1c0.8,0.1,1.3,0.8,1.2,1.5C27.4,67.8,26.8,68.3,26.1,68.3z"/>
	<path class="st0" d="M54.5,68.3c-0.7,0-1.3-0.5-1.4-1.3c-0.1-0.8,0.5-1.5,1.2-1.5c7.7-0.8,8.8-8.1,8.8-8.1c0.1-0.8,0.8-1.3,1.6-1.2
		c0.8,0.1,1.3,0.8,1.2,1.6c-0.5,3.3-3.4,9.7-11.3,10.5C54.6,68.3,54.5,68.3,54.5,68.3z"/>
	<path class="st0" d="M17.4,25.1c-0.1,0-0.1,0-0.2,0c-0.8-0.1-1.3-0.8-1.2-1.6c0.5-3.3,3.4-9.7,11.3-10.5c0.8-0.1,1.5,0.5,1.5,1.2
		c0.1,0.8-0.5,1.5-1.2,1.5c-7.6,0.8-8.8,7.8-8.8,8.1C18.7,24.6,18.1,25.1,17.4,25.1z"/>
	<path class="st0" d="M63.1,25.1c-0.7,0-1.3-0.5-1.4-1.2c0-0.3-1.2-7.3-8.8-8.1c-0.8-0.1-1.3-0.8-1.2-1.5c0.1-0.8,0.8-1.3,1.5-1.2
		c7.8,0.8,10.8,7.2,11.3,10.5c0.1,0.8-0.4,1.5-1.2,1.6C63.2,25.1,63.2,25.1,63.1,25.1z"/>
</g>
</svg>
