<?xml version="1.0" encoding="utf-8"?>
<!-- Generator: Adobe Illustrator 24.3.0, SVG Export Plug-In . SVG Version: 6.00 Build 0)  -->
<svg version="1.1" id="Layer_1" xmlns="http://www.w3.org/2000/svg" xmlns:xlink="http://www.w3.org/1999/xlink" x="0px" y="0px"
	 viewBox="0 0 80 80" style="enable-background:new 0 0 80 80;" xml:space="preserve">
<style type="text/css">
	.st0{fill:#4AC1E0;}
</style>
<g>
	<g>
		<path class="st0" d="M63.1,65.8H22.5c-0.8,0-1.4-0.6-1.4-1.4c0-0.8,0.6-1.4,1.4-1.4h40.5c0.8,0,1.4,0.6,1.4,1.4
			C64.5,65.2,63.9,65.8,63.1,65.8z"/>
		<path class="st0" d="M70.1,72.8H53.3c-0.8,0-1.4-0.6-1.4-1.4s0.6-1.4,1.4-1.4h16.8c0.8,0,1.4,0.6,1.4,1.4S70.9,72.8,70.1,72.8z"/>
		<path class="st0" d="M70.1,58.8H51.9c-0.8,0-1.4-0.6-1.4-1.4c0-0.8,0.6-1.4,1.4-1.4h18.2c0.8,0,1.4,0.6,1.4,1.4
			C71.5,58.2,70.9,58.8,70.1,58.8z"/>
		<path class="st0" d="M64,72.8H16.8c-4.6,0-8.3-3.7-8.3-8.3v-0.2c0-4.6,3.7-8.3,8.3-8.3H64c0.8,0,1.4,0.6,1.4,1.4v14
			C65.4,72.2,64.8,72.8,64,72.8z M16.8,58.8c-3,0-5.5,2.5-5.5,5.5v0.2c0,3,2.5,5.5,5.5,5.5h45.8V58.8H16.8z"/>
	</g>
	<g>
		<path class="st0" d="M61.7,51.8h-35c-0.8,0-1.4-0.6-1.4-1.4c0-0.8,0.6-1.4,1.4-1.4h35c0.8,0,1.4,0.6,1.4,1.4
			C63.1,51.2,62.5,51.8,61.7,51.8z"/>
		<path class="st0" d="M67.3,58.8H51.9c-0.8,0-1.4-0.6-1.4-1.4c0-0.8,0.6-1.4,1.4-1.4h15.4c0.8,0,1.4,0.6,1.4,1.4
			C68.7,58.2,68.1,58.8,67.3,58.8z"/>
		<path class="st0" d="M67.3,44.8H50.5c-0.8,0-1.4-0.6-1.4-1.4c0-0.8,0.6-1.4,1.4-1.4h16.8c0.8,0,1.4,0.6,1.4,1.4
			C68.7,44.2,68.1,44.8,67.3,44.8z"/>
		<path class="st0" d="M62.6,58.8h-43c-4.6,0-8.3-3.7-8.3-8.3v-0.2c0-4.6,3.7-8.3,8.3-8.3h43c0.8,0,1.4,0.6,1.4,1.4v14
			C64,58.2,63.4,58.8,62.6,58.8z M19.6,44.8c-3,0-5.5,2.5-5.5,5.5v0.2c0,3,2.5,5.5,5.5,5.5h41.6V44.8H19.6z"/>
	</g>
	<g>
		<path class="st0" d="M33.3,42.8c-0.5,0-1-0.1-1.4-0.2c-1.6-0.5-3-1.8-4.1-3.9c-4-8.1-5.1-15.2-3.1-19.9c1.1-2.7,3.3-4.5,6.1-5.4
			c2.6-0.8,4.8-0.7,6.8,0.2l0,0c1.3,0.6,2.7,0.6,4,0c1.9-0.9,4.2-1,6.8-0.2c2.9,0.9,5,2.7,6.1,5.4c2.1,4.7,1,11.8-3.1,19.9
			c-1.1,2.1-2.4,3.4-4.1,3.9c-1.5,0.4-3.2,0.2-4.9-0.9c-1.8-1.1-4-1.1-5.8,0C35.6,42.5,34.4,42.8,33.3,42.8z M34.2,15.7
			c-0.8,0-1.6,0.1-2.5,0.4c-2.1,0.6-3.6,1.9-4.4,3.8c-1.7,3.9-0.6,10.3,3,17.6c0.7,1.4,1.5,2.2,2.3,2.5c0.7,0.2,1.6,0,2.6-0.6
			c2.7-1.6,6-1.6,8.7,0c1,0.6,1.9,0.8,2.6,0.6c0.9-0.3,1.6-1.1,2.3-2.5c3.6-7.3,4.7-13.7,3-17.6c-0.8-1.9-2.3-3.2-4.4-3.8
			c-1.9-0.6-3.5-0.5-4.8,0.1c-2,1-4.4,1-6.4,0l0,0C35.8,15.8,35,15.7,34.2,15.7z"/>
		<path class="st0" d="M40.2,16.9c-0.4,0-0.8-0.2-1.1-0.6c-0.1-0.2-1.4-1.9-0.9-4.4c0.4-2.2,1.9-4.1,4.6-5.8
			c0.7-0.4,1.5-0.2,1.9,0.4c0.4,0.7,0.2,1.5-0.4,1.9c-1.9,1.2-3.1,2.6-3.3,3.9c-0.2,1.3,0.4,2.2,0.4,2.2c0.5,0.6,0.3,1.5-0.3,2
			C40.8,16.8,40.5,16.9,40.2,16.9z"/>
	</g>
</g>
</svg>
