<?xml version="1.0" encoding="utf-8"?>
<!-- Generator: Adobe Illustrator 24.3.0, SVG Export Plug-In . SVG Version: 6.00 Build 0)  -->
<svg version="1.1" id="Layer_1" xmlns="http://www.w3.org/2000/svg" xmlns:xlink="http://www.w3.org/1999/xlink" x="0px" y="0px"
	 viewBox="0 0 80 80" style="enable-background:new 0 0 80 80;" xml:space="preserve">
<style type="text/css">
	.st0{fill:#4AC1E0;}
</style>
<g>
	<g>
		<path class="st0" d="M17.8,36.5c-3.8,0-6.9-3.1-6.9-6.9c0-3.8,3.1-6.9,6.9-6.9s6.9,3.1,6.9,6.9C24.7,33.4,21.6,36.5,17.8,36.5z
			 M17.8,25.5c-2.3,0-4.1,1.8-4.1,4.1s1.8,4.1,4.1,4.1s4.1-1.8,4.1-4.1S20,25.5,17.8,25.5z"/>
		<g>
			<path class="st0" d="M15.3,74c-2.1,0-3.8-1.7-3.8-3.8V57.6c0-0.8,0.6-1.4,1.4-1.4s1.4,0.6,1.4,1.4v12.6c0,0.6,0.5,1,1,1
				c0.6,0,1-0.5,1-1V58.6c0-0.8,0.6-1.4,1.4-1.4s1.4,0.6,1.4,1.4v11.5C19.2,72.3,17.5,74,15.3,74z"/>
			<path class="st0" d="M20.2,74c-2.1,0-3.8-1.7-3.8-3.8V58.6c0-0.8,0.6-1.4,1.4-1.4s1.4,0.6,1.4,1.4v11.5c0,0.6,0.5,1,1,1
				s1-0.5,1-1V57.6c0-0.8,0.6-1.4,1.4-1.4c0.8,0,1.4,0.6,1.4,1.4v12.6C24,72.3,22.3,74,20.2,74z"/>
		</g>
		<path class="st0" d="M12.9,58.3c-0.3,0-0.6-0.1-0.8-0.3c-2.3-1.7-3.6-4.3-3.6-7.1v-9.6c0-4.2,3.4-7.5,7.5-7.5h3.5
			c4.2,0,7.5,3.4,7.5,7.5v9.6c0,2.8-1.3,5.4-3.6,7.1c-0.6,0.5-1.5,0.3-2-0.3c-0.5-0.6-0.3-1.5,0.3-2c1.6-1.2,2.4-2.9,2.4-4.9v-9.6
			c0-2.6-2.1-4.7-4.7-4.7H16c-2.6,0-4.7,2.1-4.7,4.7v9.6c0,1.9,0.9,3.7,2.4,4.9c0.6,0.5,0.7,1.3,0.3,2
			C13.7,58.1,13.3,58.3,12.9,58.3z"/>
		<path class="st0" d="M40,27.7c-4.5,0-8.2-3.7-8.2-8.2s3.7-8.2,8.2-8.2c4.5,0,8.2,3.7,8.2,8.2S44.5,27.7,40,27.7z M40,14
			c-3,0-5.5,2.4-5.5,5.5s2.4,5.5,5.5,5.5s5.5-2.4,5.5-5.5S43,14,40,14z"/>
		<g>
			<path class="st0" d="M37,74.3c-2.4,0-4.4-2-4.4-4.4V54.2c0-0.8,0.6-1.4,1.4-1.4s1.4,0.6,1.4,1.4v15.7c0,0.9,0.7,1.6,1.6,1.6
				s1.6-0.7,1.6-1.6V55.6c0-0.8,0.6-1.4,1.4-1.4s1.4,0.6,1.4,1.4v14.3C41.4,72.4,39.4,74.3,37,74.3z"/>
			<path class="st0" d="M43,74.3c-2.4,0-4.4-2-4.4-4.4V55.6c0-0.8,0.6-1.4,1.4-1.4s1.4,0.6,1.4,1.4v14.3c0,0.9,0.7,1.6,1.6,1.6
				s1.6-0.7,1.6-1.6V54.2c0-0.8,0.6-1.4,1.4-1.4c0.8,0,1.4,0.6,1.4,1.4v15.7C47.5,72.4,45.5,74.3,43,74.3z"/>
		</g>
		<path class="st0" d="M33.9,54.8c-0.3,0-0.6-0.1-0.8-0.3c-2.7-2-4.3-5.2-4.3-8.6v-12c0-5,4.1-9,9-9h4.3c5,0,9,4.1,9,9v12
			c0,3.4-1.6,6.5-4.3,8.6c-0.6,0.5-1.5,0.3-2-0.3c-0.5-0.6-0.3-1.5,0.3-2c2-1.5,3.2-3.8,3.2-6.3v-12c0-3.4-2.8-6.3-6.3-6.3h-4.3
			c-3.4,0-6.3,2.8-6.3,6.3v12c0,2.5,1.2,4.8,3.2,6.4c0.6,0.5,0.7,1.3,0.3,2C34.8,54.6,34.4,54.8,33.9,54.8z"/>
		<path class="st0" d="M62.2,36.5c-3.8,0-6.9-3.1-6.9-6.9c0-3.8,3.1-6.9,6.9-6.9c3.8,0,6.9,3.1,6.9,6.9C69.1,33.4,66,36.5,62.2,36.5
			z M62.2,25.5c-2.3,0-4.1,1.8-4.1,4.1s1.8,4.1,4.1,4.1s4.1-1.8,4.1-4.1S64.5,25.5,62.2,25.5z"/>
		<g>
			<path class="st0" d="M59.8,74c-2.1,0-3.8-1.7-3.8-3.8V57.6c0-0.8,0.6-1.4,1.4-1.4c0.8,0,1.4,0.6,1.4,1.4v12.6c0,0.6,0.5,1,1,1
				c0.6,0,1-0.5,1-1V58.6c0-0.8,0.6-1.4,1.4-1.4c0.8,0,1.4,0.6,1.4,1.4v11.5C63.6,72.3,61.9,74,59.8,74z"/>
			<path class="st0" d="M64.7,74c-2.1,0-3.8-1.7-3.8-3.8V58.6c0-0.8,0.6-1.4,1.4-1.4c0.8,0,1.4,0.6,1.4,1.4v11.5c0,0.6,0.5,1,1,1
				s1-0.5,1-1V57.6c0-0.8,0.6-1.4,1.4-1.4c0.8,0,1.4,0.6,1.4,1.4v12.6C68.5,72.3,66.8,74,64.7,74z"/>
		</g>
		<path class="st0" d="M57.4,58.3c-0.3,0-0.6-0.1-0.8-0.3c-2.3-1.7-3.6-4.3-3.6-7.1v-9.6c0-4.2,3.4-7.5,7.5-7.5H64
			c4.2,0,7.5,3.4,7.5,7.5v9.6c0,2.8-1.3,5.4-3.6,7.1c-0.6,0.5-1.5,0.3-2-0.3c-0.5-0.6-0.3-1.5,0.3-2c1.6-1.2,2.4-2.9,2.4-4.9v-9.6
			c0-2.6-2.1-4.7-4.7-4.7h-3.5c-2.6,0-4.7,2.1-4.7,4.7v9.6c0,1.9,0.9,3.7,2.4,4.9c0.6,0.5,0.7,1.3,0.3,2
			C58.2,58.1,57.8,58.3,57.4,58.3z"/>
	</g>
	<path class="st0" d="M21.8,19.9c-5.8,0-10.3-3.1-10.3-6.9S16,6,21.8,6S32,9,32,12.9S27.5,19.9,21.8,19.9z M21.8,8.8
		c-4,0-7.5,1.9-7.5,4.1c0,2.2,3.5,4.1,7.5,4.1s7.5-1.9,7.5-4.1C29.2,10.7,25.7,8.8,21.8,8.8z"/>
	<path class="st0" d="M28,24c-0.3,0-0.7-0.1-0.9-0.4l-4.4-3.9c-0.6-0.5-0.6-1.4-0.1-2c0.5-0.6,1.4-0.6,2-0.1l4.4,3.9
		c0.6,0.5,0.6,1.4,0.1,2C28.8,23.9,28.4,24,28,24z"/>
	<path class="st0" d="M60.1,18.8c-5.4,0-9.7-2.9-9.7-6.6s4.2-6.6,9.7-6.6s9.7,2.9,9.7,6.6S65.5,18.8,60.1,18.8z M60.1,8.5
		c-4,0-6.9,2-6.9,3.8s2.8,3.8,6.9,3.8c4,0,6.9-2,6.9-3.8S64.2,8.5,60.1,8.5z"/>
	<path class="st0" d="M62.9,22.1c-0.2,0-0.5-0.1-0.7-0.2c-0.7-0.4-0.9-1.2-0.6-1.9l2.4-4.5c0.4-0.7,1.2-0.9,1.9-0.6
		c0.7,0.4,0.9,1.2,0.6,1.9l-2.4,4.5C63.9,21.8,63.4,22.1,62.9,22.1z"/>
</g>
</svg>
